<?xml version="1.0" encoding="UTF-8" standalone="no"?>
<!-- Created with Inkscape (http://www.inkscape.org/) -->

<svg
   width="161.38132mm"
   height="161.36241mm"
   viewBox="0 0 161.38132 161.36241"
   version="1.1"
   id="svg1"
   xml:space="preserve"
   xmlns="http://www.w3.org/2000/svg"
   xmlns:svg="http://www.w3.org/2000/svg"><defs
     id="defs1" /><g
     id="layer1"
     transform="translate(891.2634,62.832938)"><g
       id="g41"
       transform="translate(25.546355,0.74356972)"><text
         xml:space="preserve"
         style="font-weight:bold;font-size:36.236px;font-family:Montserrat;-inkscape-font-specification:'Montserrat Bold';text-align:start;letter-spacing:0px;writing-mode:lr-tb;direction:ltr;text-anchor:start;fill:#162826;fill-opacity:1;stroke-width:0.2;stroke-linecap:round;stroke-linejoin:round;paint-order:markers fill stroke"
         x="-349.77332"
         y="-174.98654"
         id="text11"><tspan
           style="font-size:36.236px;fill:#162826;fill-opacity:1;stroke-width:0.2"
           x="-349.77332"
           y="-174.98654"
           id="tspan35">MEDEIROS</tspan></text><text
         xml:space="preserve"
         style="font-weight:bold;font-size:45.8165px;font-family:Montserrat;-inkscape-font-specification:'Montserrat Bold';text-align:start;letter-spacing:0px;writing-mode:lr-tb;direction:ltr;text-anchor:start;fill:#162826;fill-opacity:1;stroke-width:0.2;stroke-linecap:round;stroke-linejoin:round;paint-order:markers fill stroke"
         x="-346.35345"
         y="-139.81375"
         id="text39"><tspan
           id="tspan39"
           style="fill:#162826;fill-opacity:1;stroke-width:0.2"
           x="-346.35345"
           y="-139.81375">ARAUJO</tspan></text><text
         xml:space="preserve"
         style="font-weight:bold;font-size:28.5258px;font-family:Montserrat;-inkscape-font-specification:'Montserrat Bold';text-align:start;letter-spacing:0px;writing-mode:lr-tb;direction:ltr;text-anchor:start;fill:#254b44;fill-opacity:1;stroke-width:0.2;stroke-linecap:round;stroke-linejoin:round;paint-order:markers fill stroke"
         x="-349.13339"
         y="-116.83695"
         id="text40"><tspan
           id="tspan40"
           style="fill:#254b44;fill-opacity:1;stroke-width:0.2"
           x="-349.13339"
           y="-116.83695">ENGENHARIA</tspan></text><path
         style="fill:#4b8b82;fill-opacity:1"
         d="m -840.46765,97.362698 c -0.0741,-0.25821 -0.32903,-1.48151 -0.56647,-2.71844 -0.23745,-1.23693 -0.48475,-2.43626 -0.54957,-2.66519 -0.0917,-0.32376 -0.95475,-0.51939 -3.88518,-0.88063 -2.07203,-0.25542 -3.95864,-0.51721 -4.19245,-0.58176 -0.32101,-0.0886 -0.74213,0.56989 -1.71979,2.68924 l -1.29468,2.80658 -1.05833,-0.14311 c -0.58208,-0.0787 -2.42755,-0.53564 -4.10104,-1.01541 l -3.04271,-0.8723 0.0607,-3.19091 0.0607,-3.1909 -2.97107,-1.22025 c -1.63409,-0.67113 -3.40281,-1.4033 -3.93048,-1.62703 l -0.9594,-0.40679 -1.81873,2.14584 c -1.00029,1.18022 -1.89822,2.26816 -1.99539,2.41765 -0.10664,0.16407 -1.44397,-0.45457 -3.37378,-1.56067 -4.80553,-2.75439 -4.42731,-2.14215 -3.33221,-5.39398 0.51125,-1.5181 0.92954,-2.84556 0.92954,-2.9499 0,-0.18109 -5.25692,-4.376736 -6.29998,-5.028146 -0.4295,-0.26822 -0.84316,-0.0686 -2.95949,1.428246 l -2.46021,1.74004 -1.67957,-1.50225 c -1.5989,-1.430096 -4.32783,-4.359216 -4.32783,-4.645306 0,-0.0739 0.72354,-1.26527 1.60787,-2.64737 l 1.60787,-2.5129 -2.39479,-3.17135 c -1.31714,-1.74425 -2.51144,-3.24344 -2.65401,-3.33155 -0.14256,-0.0881 -1.46685,0.26015 -2.94285,0.77391 -1.476,0.51376 -2.77962,0.93412 -2.89693,0.93412 -0.19921,0 -3.09469,-4.65798 -4.05851,-6.52896 l -0.43293,-0.84042 2.3818,-2.05849 c 1.31,-1.13218 2.35032,-2.13292 2.31183,-2.22387 -0.0385,-0.091 -0.77558,-1.86489 -1.63799,-3.94208 l -1.568,-3.7767 -2.53304,0.18111 c -1.39317,0.0996 -2.78814,0.24096 -3.09993,0.3141 -0.48281,0.11326 -0.62896,-0.0566 -0.98543,-1.14533 -0.64072,-1.95692 -1.75355,-6.24889 -1.7543,-6.76601 -4.6e-4,-0.31988 0.82793,-0.87483 2.71131,-1.81633 1.49159,-0.74564 2.72794,-1.37181 2.74743,-1.39147 0.0195,-0.0197 -0.21863,-1.93365 -0.52916,-4.25328 l -0.56462,-4.21751 -3.04271,-0.54499 -3.04271,-0.54498 -0.0727,-4.29281 c -0.0724,-4.27602 -0.0703,-4.29333 0.52917,-4.42934 0.33101,-0.0751 1.72179,-0.37455 3.09063,-0.66544 1.36884,-0.29089 2.51287,-0.55987 2.5423,-0.59774 0.0294,-0.0379 0.25905,-1.7357197 0.51027,-3.7730097 0.25122,-2.03729 0.50566,-3.88563 0.56542,-4.10743 0.0777,-0.28847 -0.69086,-0.80089 -2.6999,-1.80005 l -2.80854,-1.39679 0.15892,-0.99387 c 0.0874,-0.54663 0.54839,-2.35598 1.02439,-4.02078 l 0.86546,-3.02691 3.20005,0.077 3.20006,0.077 1.27473,-3.1196803 c 0.7011,-1.71582 1.42989,-3.49374 1.61954,-3.95093 l 0.34481,-0.83126 -2.00485,-1.68228 c -1.10266,-0.92526 -2.18602,-1.82587 -2.40747,-2.00136 -0.34939,-0.27689 -0.16887,-0.73165 1.36544,-3.43958 0.97243,-1.71628 1.97198,-3.38997 2.22122,-3.71932 l 0.45316,-0.59881 2.76019,0.92954 c 1.5181,0.51125 2.84812,0.92954 2.95559,0.92954 0.19271,0 4.33327,-5.17713 4.98365,-6.23128 0.29917,-0.48491 0.14957,-0.80551 -1.40418,-3.00901 l -1.73902,-2.46627 1.49514,-1.69247 c 1.45385,-1.64572 4.35967,-4.32805 4.68867,-4.32805 0.0898,0 1.25004,0.7307 2.57824,1.62378 2.80655,1.88712 2.13821,2.02329 6.38406,-1.30072 2.01149,-1.57477 2.82852,-2.37169 2.73996,-2.67253 -0.0694,-0.23576 -0.52573,-1.53668 -1.01406,-2.89093 l -0.88788,-2.46226 0.66146,-0.50549 c 0.3638,-0.27802 2.0216,-1.28079 3.68398,-2.22839 l 3.02253,-1.7229 1.36268,1.51565 c 0.74947,0.83361 1.71106,1.90482 2.13685,2.38046 l 0.77417,0.86479 3.83646,-1.62298 c 2.11005,-0.89263 3.87415,-1.65683 3.92023,-1.69821 0.0461,-0.0414 -0.0418,-1.42044 -0.19535,-3.06458 -0.21561,-2.30925 -0.20601,-3.03451 0.0422,-3.18791 0.41436,-0.25609 5.95935,-1.79329 7.18795,-1.99266 l 0.93982,-0.15251 1.36892,2.81558 1.36892,2.81559 1.21647,-0.16429 c 0.66906,-0.0904 2.58244,-0.35995 4.25196,-0.59908 l 3.03549,-0.43479 0.45826,-2.75453 c 0.25204,-1.51499 0.51944,-2.91397 0.59422,-3.10885 0.10577,-0.27564 1.07688,-0.35433 4.37257,-0.35433 4.17714,0 4.23849,0.008 4.3715,0.59531 0.0742,0.32743 0.37291,1.71527 0.6638,3.08411 0.2909,1.36884 0.55988,2.51287 0.59774,2.5423 0.0379,0.0294 1.73572,0.25905 3.77301,0.51027 2.03729,0.25122 3.89236,0.50779 4.12238,0.57016 0.31175,0.0845 0.76048,-0.62423 1.76284,-2.78437 l 1.34464,-2.89778 3.39653,0.88551 c 1.86809,0.48703 3.74062,1.01889 4.16117,1.18191 l 0.76465,0.2964 -0.18293,3.12742 -0.18293,3.12742 3.9162,1.6121 3.9162,1.61209 1.19063,-1.36759 c 0.65484,-0.75217 1.60734,-1.81651 2.11666,-2.36518 l 0.92604,-0.9976 3.07546,1.78533 c 1.69151,0.98192 3.33012,1.96391 3.64137,2.18219 l 0.56591,0.39688 -0.98454,2.9655 c -0.5415,1.63103 -0.92996,3.00948 -0.86325,3.06322 1.2718,1.0245 6.58122,4.95149 6.69459,4.95149 0.0857,0 1.24863,-0.77056 2.58428,-1.71236 l 2.42844,-1.71235 1.30567,1.09317 c 1.27806,1.07006 4.48945,4.50184 4.65397,4.97337 0.0457,0.13107 -0.6552,1.3364 -1.55763,2.67851 -1.309,1.94675 -1.58497,2.52957 -1.36476,2.88219 0.72938,1.16793 4.66107,6.14073 4.9396,6.24761 0.17412,0.0668 1.42009,-0.29963 2.76883,-0.81433 1.34874,-0.5147 2.60742,-0.93581 2.79708,-0.93581 0.3012,0 1.3977,1.69103 3.9459,6.08541 l 0.69041,1.19063 -2.30116,2.13528 -2.30116,2.13529 1.54114,3.91745 1.54114,3.9174503 2.01707,-0.17121 c 1.10938,-0.0942 2.50969,-0.23979 3.11178,-0.32362 l 1.09472,-0.15242 0.41988,1.28235 c 0.64179,1.96006 1.75489,6.25238 1.75564,6.77004 4.6e-4,0.31855 -0.80902,0.86692 -2.62469,1.77807 -1.44395,0.72461 -2.67444,1.4103 -2.73443,1.52377 -0.06,0.11346 0.13916,2.04696 0.44255,4.29666 l 0.55161,4.0903697 3.04271,0.54032 3.04271,0.54033 0.0726,4.2789 0.0726,4.2789 -1.39552,0.28447 c -0.76754,0.15646 -2.16922,0.43872 -3.11484,0.62724 l -1.71932,0.34277 -0.43915,3.29546 c -0.24154,1.8125 -0.49674,3.73018 -0.56711,4.2615 l -0.12794,0.96604 2.76054,1.28292 2.76054,1.28292 -0.1566,1.10445 c -0.0861,0.60744 -0.53869,2.45291 -1.00568,4.10104 l -0.84907,2.99659 -3.1836,-0.0604 -3.18359,-0.0604 -1.64867,3.89686 -1.64866,3.89686 1.38904,1.19063 c 0.76397,0.65484 1.83396,1.60734 2.37774,2.11666 l 0.9887,0.92604 -1.98171,3.4332 c -1.08994,1.88826 -2.08775,3.53924 -2.21736,3.66885 -0.13782,0.13783 -1.41658,-0.15979 -3.08015,-0.71685 -1.94494,-0.65129 -2.9443,-0.86969 -3.16009,-0.69061 -0.17357,0.14406 -1.36044,1.63234 -2.63747,3.3073 l -2.32188,3.04537 1.2927,1.90788 c 0.71098,1.04933 1.50295,2.22254 1.75995,2.60713 l 0.46725,0.69926 -2.91996,2.94476 c -1.60598,1.619606 -3.03572,2.944756 -3.1772,2.944756 -0.14148,0 -1.39226,-0.72794 -2.77952,-1.617636 l -2.52229,-1.61764 -2.44069,1.870266 c -1.34238,1.02865 -2.84254,2.20737 -3.33369,2.61939 l -0.893,0.74912 0.95915,2.66695 c 0.52753,1.46682 0.95915,2.7913 0.95915,2.94328 0,0.31075 -2.3057,1.81102 -5.31814,3.4604 l -2.01085,1.10098 -2.06471,-2.36995 -2.06471,-2.36995 -0.81923,0.33978 c -0.45058,0.18688 -2.2288,0.91575 -3.95159,1.61971 l -3.13235,1.27992 0.16667,2.13717 c 0.0917,1.17544 0.22967,2.57116 0.30665,3.1016 l 0.13997,0.96444 -1.67221,0.54521 c -2.0288,0.66146 -5.83523,1.62696 -6.41423,1.62696 -0.27001,0 -0.91714,-0.99867 -1.808,-2.79014 -1.16798,-2.34875 -1.4712,-2.77089 -1.91665,-2.66841 -0.29104,0.067 -2.13651,0.32669 -4.10104,0.57718 -1.96453,0.2505 -3.61998,0.49727 -3.67878,0.5484 -0.0588,0.0511 -0.35791,1.43391 -0.66469,3.07286 l -0.5578,2.9799 -4.27636,0.0726 c -3.90416,0.0663 -4.28809,0.0318 -4.41111,-0.39687 z m 12.11782,-15.02482 c 7.26929,-0.85034 14.16968,-2.89366 20.92672,-6.19675 6.71052,-3.280346 12.41627,-7.335146 17.56054,-12.479416 10.16757,-10.16757 16.48369,-22.74066 18.72766,-37.27995 0.66169,-4.28731 0.65887,-14.26536 -0.005,-18.5208397 -2.34251,-15.01026 -8.79855,-27.5645703 -19.52485,-37.9677103 -5.32795,-5.16743 -10.09609,-8.51783 -16.76703,-11.7816 -6.10802,-2.98836 -12.18231,-4.92469 -18.65312,-5.94613 -4.23723,-0.66886 -12.82285,-0.81536 -17.2956,-0.29512 -15.09308,1.75555 -28.3947,8.22458 -39.19913,19.06388 -9.2924,9.32241 -15.50537,20.9869303 -17.96411,33.7266903 -5.40233,27.9917897 7.71381,55.9787597 32.78696,69.9601497 6.97165,3.887556 15.7359,6.729146 23.74841,7.699826 4.08668,0.49509 11.5028,0.50312 15.6588,0.017 z m -12.552,-5.56613 c 0,-4.556926 -0.36023,-5.410816 -2.28262,-5.410816 -0.35852,0 -0.94409,0.29224 -1.30128,0.64943 -0.62477,0.62477 -0.64943,0.78378 -0.64943,4.187906 v 3.53848 l -1.5875,-0.25566 -1.5875,-0.25566 v -3.40308 c 0,-3.050306 -0.0549,-3.457946 -0.52917,-3.932256 -0.71906,-0.71905 -1.97437,-0.68948 -2.49854,0.0589 -0.31093,0.44391 -0.41188,1.28693 -0.41188,3.43958 0,1.568346 -0.0583,2.851536 -0.1295,2.851536 -0.0712,0 -0.90467,-0.31031 -1.85209,-0.68959 l -1.72257,-0.68959 v -4.337486 -4.33749 h 19.57916 19.57917 v 4.30184 4.301846 l -1.65364,0.593 c -0.90951,0.32615 -1.74295,0.59297 -1.85209,0.59295 -0.10914,-3e-5 -0.19844,-1.22372 -0.19844,-2.719306 0,-2.03292 -0.10395,-2.86768 -0.41187,-3.30729 -0.52417,-0.74836 -1.77948,-0.77793 -2.49854,-0.0589 -0.47236,0.47236 -0.52917,0.88195 -0.52917,3.815436 v 3.28627 l -0.79375,0.15331 c -0.43656,0.0843 -1.15094,0.22231 -1.5875,0.30663 l -0.79375,0.15332 v -3.42493 c 0,-3.064266 -0.0577,-3.498326 -0.54837,-4.122056 -0.3742,-0.47572 -0.7999,-0.69714 -1.34031,-0.69714 -1.93776,0 -2.34465,0.94813 -2.34465,5.463436 0,2.4363 -0.0842,3.26855 -0.33073,3.27072 -0.1819,0.002 -0.77721,0.0767 -1.32292,0.16691 l -0.99219,0.164 v -3.88311 c 0,-3.770016 -0.0189,-3.902006 -0.64943,-4.532526 -0.47785,-0.47785 -0.93539,-0.64943 -1.73182,-0.64943 -0.79642,0 -1.25396,0.17158 -1.73181,0.64943 -0.62999,0.62999 -0.64944,0.76465 -0.64944,4.497916 v 3.84848 h -1.32291 -1.32292 z m -20.55448,-12.509506 -4.28261,-1.76486 14.95245,-0.0683 c 8.22385,-0.0376 21.6404,-0.0376 29.81455,0 l 14.8621,0.0683 -4.42132,1.78594 -4.42131,1.78594 -21.11063,-0.0211 -21.11062,-0.0211 z m -5.37469,-8.30085 v -4.37346 l 30.82396,0.0163 30.82396,0.0163 v 4.18167 4.18167 l -17.92552,3e-4 c -9.85904,1.6e-4 -23.72982,0.0791 -30.82396,0.1755 l -12.89844,0.1752 z m 47.62128,-7.03151 c -0.74476,-0.74476 -1.08507,-1.34648 -1.21261,-2.14404 -0.11307,-0.70714 -0.36644,-1.20995 -0.69951,-1.3882 -0.68295,-0.36551 -1.17616,0.0832 -0.60891,0.55398 0.50026,0.41518 0.5353,1.06764 0.0573,1.06764 -0.19291,0 -0.5957,-0.26789 -0.89509,-0.59531 -1.41985,-1.55282 -1.9993,-4.1768 -1.29473,-5.86308 0.42046,-1.00631 0.41798,-1.01913 -0.37015,-1.91676 -0.43639,-0.49703 -0.79344,-1.07399 -0.79344,-1.28214 0,-0.45314 -1.454,-2.1589 -2.1643,-2.53904 -0.2916,-0.15606 0.16999,0.70275 1.09462,2.03659 1.72627,2.49025 2.01288,3.71412 1.20197,5.13266 -0.82861,1.4495 -0.35293,3.62552 1.17228,5.36263 l 0.84159,0.95852 -0.82272,0.42545 c -1.16797,0.60398 -3.2562,0.8021 -4.22493,0.40084 -0.60648,-0.25121 -0.80243,-0.50248 -0.80169,-1.02798 10e-4,-0.71838 0.74364,-2.14514 1.60535,-3.08429 0.46445,-0.50619 1.41546,-2.77059 1.1636,-2.77059 -0.0643,0 -0.2849,0.40184 -0.49011,0.89297 -0.20521,0.49113 -1.033,1.55287 -1.83955,2.35941 -0.99981,0.99982 -1.52093,1.75691 -1.63769,2.3793 -0.14476,0.77163 -0.32595,0.9592 -1.17126,1.21246 -1.45554,0.43609 -3.58264,0.38312 -3.98292,-0.0992 -0.27841,-0.33547 -0.20558,-0.4425 0.45867,-0.67406 0.60621,-0.21132 0.86619,-0.5308 1.11922,-1.37533 0.24644,-0.82257 0.97352,-1.74333 2.88237,-3.65019 1.40404,-1.40257 2.75586,-2.90558 3.00406,-3.34003 l 0.45126,-0.7899 -1.18478,-1.56658 c -0.65163,-0.86162 -1.56907,-2.36355 -2.03876,-3.33763 -0.88287,-1.83093 -1.51545,-2.3012 -1.51545,-1.12659 0,0.71885 0.4948,1.85589 1.69513,3.89539 0.92352,1.56918 0.79819,2.73932 -0.40151,3.7488 -0.44278,0.37258 -0.90307,0.67741 -1.02287,0.67741 -0.11981,0 -0.65042,0.43259 -1.17915,0.96132 -2.03723,2.03723 -1.46842,-0.2884 0.66033,-2.69981 1.43036,-1.62029 1.97347,-2.75943 1.31561,-2.75943 -0.5482,0 -2.19295,-1.73747 -2.82446,-2.98369 -0.47073,-0.92894 -0.74048,-2.05316 -0.9247,-3.85388 -0.14306,-1.39829 -0.318,-2.60025 -0.38877,-2.67102 -0.0708,-0.0708 -0.37298,0.0239 -0.67157,0.21038 -0.29859,0.18647 -0.58393,0.29801 -0.63407,0.24787 -0.0502,-0.0502 -0.20426,-0.80254 -0.34248,-1.67198 -0.26186,-1.64725 -0.15015,-2.71113 0.61048,-5.81414 0.39729,-1.62074 0.4133,-2.13933 0.12819,-4.15177 -0.17919,-1.26482 -0.25191,-2.66913 -0.16161,-3.12067 0.1412,-0.70596 0.0351,-0.93437 -0.75759,-1.63032 -0.58265,-0.51158 -0.92179,-1.04837 -0.92179,-1.45901 0,-0.3657397 -0.11563,-0.5781997 -0.26458,-0.4861397 -0.14552,0.0899 -0.26459,1.1685197 -0.26459,2.3968597 0,1.79152 -0.0772,2.23334 -0.39008,2.23334 -0.21454,0 -0.56745,0.34301 -0.78424,0.76224 -0.81212,1.57046 -3.07408,2.97158 -6.50527,4.02953 -3.55273,1.09544 -9.21801,0.63246 -10.84849,-0.88655 -0.44003,-0.40995 -0.53629,-0.72372 -0.41701,-1.35921 0.398,-2.12033 0.47966,-3.80345 0.19313,-3.98054 -0.44037,-0.27216 -0.36178,-1.13022 0.12048,-1.31528 0.23018,-0.0883 1.00409,-0.1606 1.71979,-0.1606 1.75548,0 1.80469,-0.65818 0.0687,-0.91851 -2.36164,-0.35415 -2.47157,-0.4544797 -2.47157,-2.2558597 0,-1.50727 -0.0633,-1.66863 -1.09277,-2.78547 l -1.09276,-1.18551 1.61778,-2.45343 c 2.28116,-3.45947 2.57945,-4.45316 2.16764,-7.22116 -0.37644,-2.53023 -0.22885,-3.51972 0.68743,-4.6086503 1.21637,-1.44557 3.41744,-1.29378 5.51789,0.3805103 0.58208,0.46398 1.73627,1.22735 2.56487,1.69637 1.66534,0.94264 2.36314,1.8889 2.83752,3.84787 0.184,0.7598 0.69035,1.73672 1.22227,2.35816 0.51546,0.6022 0.97167,1.47135 1.05506,2.01009 0.36599,2.36433 0.70042,3.06363 2.03559,4.25642 0.73301,0.65484 1.79286,1.62223 2.35521,2.14974 0.64963,0.60939 1.28096,0.95912 1.73138,0.95912 0.96288,0 1.41164,0.71255 1.41164,2.24146 0,1.1361297 0.10612,1.3736097 0.94163,2.1071897 1.11082,0.97531 1.70678,2.07221 2.46815,4.54276 0.68602,2.22607 0.686,2.21962 0.005,1.60293 -0.54596,-0.49408 -0.56174,-0.49268 -1.03521,0.092 -0.72193,0.89156 -0.88907,2.42063 -0.41379,3.78559 0.22451,0.64477 0.40993,1.7194 0.41205,2.38807 0.003,0.87633 0.15159,1.34947 0.53302,1.69465 0.51757,0.4684 0.52932,0.46205 0.5362,-0.28972 l 0.007,-0.76861 0.45111,0.7276 c 0.55912,0.9018 0.7538,0.9131 0.96886,0.0562 0.19019,-0.75777 -0.23014,-2.60593 -0.79229,-3.4837 -0.3208,-0.50091 -0.321,-0.61291 -10e-4,-0.79375 0.20464,-0.11581 0.41217,-0.54541 0.46118,-0.95468 l 0.0891,-0.74413 1.44201,1.2339 c 0.7931,0.67864 2.10279,1.52598 2.91041,1.88298 1.78502,0.78904 2.83062,1.73055 3.48034,3.13387 0.88002,1.90075 0.63197,2.15651 -0.75061,0.77393 -1.20278,-1.20278 -3.43675,-2.48573 -4.33777,-2.49113 -1.52385,-0.009 -0.95063,2.68857 0.8203,3.86051 1.24287,0.8225 3.71136,1.77813 3.71136,1.4368 0,-0.13981 -0.23812,-0.38164 -0.52917,-0.5374 -0.80465,-0.43064 -0.65102,-0.82589 0.19844,-0.51054 1.20005,0.4455 3.15503,1.88081 3.60935,2.64991 0.23405,0.39622 0.42555,1.03364 0.42555,1.41649 0,0.62283 -0.0579,0.66512 -0.54984,0.40183 -1.59792,-0.85518 -1.77511,1.08515 -0.18035,1.97479 0.70198,0.3916 1.32928,1.13232 2.15828,2.54851 1.27934,2.1855 3.02064,3.95443 3.89264,3.95443 0.39895,0 0.5112,-0.1186 0.39612,-0.41852 -0.0883,-0.23018 -0.1606,-0.52229 -0.1606,-0.64914 0,-0.12684 -0.50602,-0.7522 -1.12448,-1.3897 -1.40122,-1.44433 -2.40729,-3.10124 -2.92589,-4.81868 -0.21971,-0.72761 -0.6013,-1.71729 -0.84799,-2.19931 -0.55103,-1.07668 -0.36512,-1.32374 0.54658,-0.72637 0.90079,0.59022 1.46831,1.98504 1.37975,3.39105 -0.0609,0.96737 0.006,1.13312 0.48797,1.20187 0.47304,0.0675 0.58121,-0.0884 0.70582,-1.01751 0.30742,-2.29193 -1.25831,-5.36322 -3.66783,-7.19474 -1.47439,-1.12071 -1.63474,-1.61876 -0.56084,-1.74199 0.58838,-0.0675 0.9564,0.14928 1.79652,1.05833 0.58111,0.62879 1.46851,1.58442 1.97201,2.12363 0.55705,0.59654 0.91546,1.24912 0.91546,1.66678 0,0.37753 0.19978,1.06745 0.44395,1.53317 0.46937,0.89521 0.75621,2.17301 1.09597,4.88221 0.22528,1.79631 0.51718,2.28466 1.27625,2.13513 0.38831,-0.0765 0.48305,-0.31708 0.45255,-1.14929 -0.0212,-0.5789 -0.11832,-1.40973 -0.2158,-1.8463 -0.17005,-0.76162 -0.1601,-0.77248 0.24565,-0.26834 1.69872,2.11059 1.98584,9.34587 0.40954,10.32007 -0.71587,0.44243 -0.8738,-0.34755 -0.42593,-2.13052 0.24443,-0.97309 0.39342,-1.82026 0.33108,-1.8826 -0.0623,-0.0623 -0.36505,0.20663 -0.67268,0.59773 -0.46057,0.58552 -0.55933,1.07468 -0.55933,2.77041 0,2.38222 -0.1409,2.89638 -0.79375,2.89638 -0.69192,0 -0.818,-0.58592 -0.77392,-3.59649 0.0218,-1.4893 -0.0403,-2.83716 -0.138,-2.99525 -0.30737,-0.49734 -0.93972,-0.31329 -1.24797,0.36324 -0.24677,0.5416 -0.38304,0.60434 -0.81297,0.37425 -0.59491,-0.31839 -1.39368,-2.00009 -1.68068,-3.53846 l -0.19745,-1.05833 -0.47798,1.05833 c -0.26289,0.58208 -0.48111,1.50727 -0.48492,2.05597 -0.006,0.89187 0.12374,1.08824 1.22566,1.85209 2.72781,1.89092 3.29069,2.57423 2.12053,2.57423 -0.59971,0 -0.60851,0.0347 -0.34055,1.34285 0.35998,1.75727 -0.10697,2.71856 -1.38056,2.8421 -0.71045,0.0689 -1.04999,-0.10108 -1.90033,-0.95141 z M -850.956,-0.6057377 c 0.57049,-0.29104 1.2731,-0.52917 1.56135,-0.52917 0.96177,0 0.89193,-0.56803 -0.20756,-1.68834 -1.75728,-1.79053 -1.37948,-2.34046 0.64906,-0.94478 1.03313,0.71081 1.17215,0.74784 1.17215,0.31221 0,-0.65163 -1.69216,-2.60989 -2.71013,-3.1363 -1.00599,-0.52022 -3.55943,-0.58748 -4.41776,-0.11636 l -0.64559,0.35434 0.54896,0.44452 c 0.35083,0.28409 0.59724,0.86784 0.68273,1.61743 0.1215,1.0652 0.55672,3.04971 0.852,3.88488 0.17412,0.49248 1.34098,0.4004 2.51479,-0.19843 z m -0.84759,49.8609797 c -3.76405,-0.58615 -7.2653,-2.37125 -8.59657,-4.38294 -1.01851,-1.53908 -1.02715,-3.57704 -0.0224,-5.29149 1.47411,-2.51539 4.95669,-5.08686 8.57526,-6.33183 2.04064,-0.70209 2.05741,-0.6655 0.22986,0.50161 -4.44447,2.83832 -6.09897,6.83331 -3.80862,9.19636 1.41785,1.46284 2.76511,1.82553 6.71903,1.80878 3.04942,-0.0129 3.67969,-0.0977 5.55625,-0.74707 1.16417,-0.40287 2.75962,-1.09989 3.54544,-1.54892 1.66037,-0.94876 4.79224,-3.8188 5.60862,-5.13973 l 0.5636,-0.91192 0.75622,0.74152 c 0.41592,0.40784 0.75952,0.867 0.76356,1.02035 0.004,0.15336 -0.41263,0.68589 -0.92594,1.18341 -0.9171,0.88889 -1.71254,2.81278 -1.71254,4.14204 0,0.66996 0.2883,0.76096 1.07573,0.33954 0.64461,-0.34498 0.64458,-0.34473 -0.14963,1.39005 -0.73219,1.59932 -0.88852,1.70289 -4.36568,2.89235 -4.35305,1.48908 -9.06446,1.87722 -13.81218,1.13789 z m -0.0784,-7.05305 c -2.28081,-0.79701 -2.66486,-2.69684 -0.99219,-4.90817 0.96109,-1.27058 2.91479,-3.10453 4.21438,-3.95605 0.58497,-0.38329 0.6615,-0.37817 0.98627,0.066 0.33891,0.46348 0.36232,0.46239 0.62539,-0.0292 0.88848,-1.66027 0.63833,-4.23613 -0.89966,-9.26384 -0.5154,-1.68487 -0.89707,-3.09946 -0.84814,-3.14353 0.0489,-0.0441 1.04763,-0.32046 2.21935,-0.61418 2.71057,-0.67948 4.31745,-1.43923 6.43703,-3.04354 2.37541,-1.79794 2.57342,-1.47944 1.7557,2.82407 -0.25228,1.3277 -0.37344,2.76718 -0.27838,3.30729 0.0926,0.526 0.88861,2.46956 1.76897,4.31902 1.03257,2.16923 1.60066,3.69848 1.60066,4.30887 0,2.60764 -3.68098,7.04782 -7.23076,8.7221 -1.07266,0.50593 -2.65991,1.10222 -3.52723,1.3251 -1.78365,0.45835 -4.64519,0.5006 -5.83139,0.0861 z m 42.16693,-13.17618 c -2.63182,-1.39069 -3.61419,-4.09239 -2.95517,-8.12719 0.46608,-2.85349 0.33425,-3.98806 -0.84761,-7.29476 -1.3066,-3.6556797 -1.17375,-5.8320397 0.37653,-6.1684497 0.37523,-0.0814 0.8321,-0.1943 1.01527,-0.25082 0.18316,-0.0565 0.6174,0.005 0.96498,0.1375 0.83704,0.31824 1.11203,0.003 0.44407,-0.50957 -0.2919,-0.22385 -0.7175,-0.85809 -0.94579,-1.40942 l -0.41507,-1.00242 0.98166,-0.41016 c 0.54779,-0.22888 1.31134,-0.34422 1.72761,-0.26097 0.85976,0.17195 0.99465,-0.21504 0.21954,-0.62986 -0.51451,-0.27536 -1.32565,-1.55921 -1.32565,-2.0982 0,-0.41316 1.46072,-1.07827 2.36811,-1.07827 0.96261,0 1.06996,-0.40577 0.16728,-0.63233 -0.35178,-0.0883 -0.89843,-0.57932 -1.21478,-1.09119 l -0.57518,-0.93066 0.61947,-0.52289 c 0.34071,-0.28759 0.91713,-0.59331 1.28093,-0.67938 1.36099,-0.32199 1.47501,-0.43894 0.65152,-0.66825 -0.44203,-0.12309 -1.13353,-0.56808 -1.53668,-0.98887 l -0.73299,-0.76508 0.81132,-0.81131 c 0.44623,-0.44623 1.05315,-0.84923 1.34872,-0.89557 0.7264,-0.11389 0.68252,-0.59108 -0.0649,-0.70619 -0.77143,-0.1188 -2.06447,-1.03483 -2.06447,-1.4625203 0,-0.45088 1.56507,-2.01659 2.01577,-2.01659 0.20101,0 0.36548,-0.11906 0.36548,-0.26458 0,-0.14552 -0.3631,-0.26459 -0.80689,-0.26459 -0.92882,0 -2.36811,-0.66858 -2.36811,-1.10004 0,-0.55199 1.08454,-2.04762 1.60448,-2.21264 0.28593,-0.0907 0.44859,-0.28033 0.36147,-0.4213 -0.0871,-0.14096 -0.38125,-0.18556 -0.65362,-0.0991 -0.75144,0.2385 -2.63554,-0.40903 -2.63362,-0.90513 0.002,-0.58668 0.75207,-1.96519 1.20755,-2.22009 0.73794,-0.41297 0.3575,-0.58745 -1.27532,-0.58489 -1.491,0.002 -1.66162,-0.0533 -1.73465,-0.56567 -0.0661,-0.46373 0.30782,-1.56901 0.94733,-2.8002 0.0553,-0.1064 -0.318,-0.0186 -0.82949,0.19512 -0.54694,0.22852 -1.26368,0.32182 -1.74018,0.22652 -0.72642,-0.14528 -0.8102,-0.26197 -0.8102,-1.12843 0,-0.53151 0.19074,-1.2387 0.42386,-1.57153 0.53971,-0.77054 0.3285,-0.99021 -0.46705,-0.48575 -0.96897,0.61442 -2.36332,0.8296 -2.63165,0.40612 -0.311,-0.49083 -0.29376,-2.00488 0.0297,-2.6093 0.17777,-0.33218 0.17716,-0.55019 -0.002,-0.66084 -0.14694,-0.0908 -0.33504,0.0118 -0.41801,0.22797 -0.13671,0.35625 -1.89443,1.22795 -2.47609,1.22795 -0.40036,0 -0.86147,-1.80423 -0.67642,-2.64675 0.17703,-0.80603 -0.21098,-1.13025 -0.48817,-0.40791 -0.12303,0.32062 -1.99077,1.46716 -2.39002,1.46716 -0.25474,0 -1.01552,-2.38011 -0.87654,-2.74228 0.27558,-0.71817 -0.16803,-0.69572 -0.61764,0.0312 -0.24718,0.39966 -0.82135,0.94073 -1.27594,1.20237 l -0.82652,0.47572 -0.53201,-0.87259 c -0.2926,-0.47993 -0.53245,-1.20001 -0.533,-1.6002 -0.001,-0.81967 -0.41482,-0.97863 -0.64657,-0.24844 -0.0837,0.26354 -0.55127,0.86607 -1.03916,1.33895 l -0.88707,0.85979 -0.69847,-0.83009 c -0.38416,-0.45654 -0.69847,-1.1186 -0.69847,-1.47124 0,-0.39353 -0.15328,-0.64115 -0.39687,-0.64115 -0.23838,0 -0.39688,0.24438 -0.39688,0.61195 0,0.33658 -0.35718,0.95417 -0.79375,1.37242 l -0.79375,0.76046 -0.78012,-0.7474 c -0.42907,-0.41108 -0.81602,-0.98957 -0.8599,-1.28555 -0.12498,-0.84315 -0.74123,-0.87437 -0.74123,-0.0376 0,0.91417 -0.99865,2.56296 -1.41166,2.33067 -0.68551,-0.38555 -1.56859,-1.32066 -1.79091,-1.89644 -0.27424,-0.71022 -0.77918,-0.55396 -0.58682,0.1816 0.0713,0.27274 -0.12295,0.99107 -0.43171,1.5963 l -0.56139,1.1004 -0.82036,-0.47207 c -0.45119,-0.25964 -1.02887,-0.80939 -1.28371,-1.22166 -0.27817,-0.45 -0.53415,-0.63506 -0.64048,-0.46302 -0.0974,0.15761 -0.0979,0.41477 -10e-4,0.57148 0.0969,0.1567 -0.0283,0.82001 -0.27803,1.47402 l -0.45413,1.18911 -0.56624,-0.5309 c -0.31143,-0.292 -1.44109,-0.81467 -2.51036,-1.1615 l -1.94411,-0.6306 1.67953,-1.09354 c 8.37108,-5.4504 19.32115,-6.02514 28.75451,-1.50925 9.4693,4.5331 15.57056,12.91937 16.98633,23.34795 0.70281,5.1769503 -0.19224,12.3958603 -2.07427,16.7297903 -0.95433,2.19762 -0.9751,2.31603 -0.9098,5.1865797 0.0568,2.49548 -0.0723,3.61048 -0.85726,7.40833 -1.00616,4.86788 -1.14398,7.25101 -0.53534,9.25732 0.2167,0.71435 0.3953,1.32858 0.39687,1.36496 0.009,0.20442 -0.78249,-0.0227 -1.61875,-0.4646 z m -12.11642,-5.71048 c -0.44773,-0.37674 -0.81405,-0.91252 -0.81405,-1.19062 0,-0.60097 0.40868,-0.67211 0.62485,-0.10878 0.22015,0.57371 1.42082,0.49475 1.74709,-0.11489 0.67245,-1.25649 -0.0632,-2.39865 -1.5449,-2.39865 -0.97672,0 -2.14996,0.99561 -2.14996,1.82444 0,0.28907 -0.0941,0.58375 -0.20914,0.65484 -0.42107,0.26023 -1.95629,-0.73598 -3.10765,-2.01657 -2.41866,-2.69013 -3.70384,-6.92425 -3.05025,-10.0492397 0.30594,-1.46277 0.81079,-2.30963 0.81079,-1.36005 0,0.90886 0.87347,3.9639697 1.58687,5.5503697 1.21263,2.69653 2.92106,4.24207 5.22616,4.72787 0.85579,0.18036 0.85989,0.17623 0.85989,-0.86574 0,-1.2694 -0.53894,-1.85793 -1.14572,-1.25115 -0.51179,0.51179 -0.81992,0.0987 -0.59495,-0.79765 0.0984,-0.39212 0.4187,-0.70701 0.8221,-0.80826 1.25381,-0.31469 2.13072,1.07258 1.74977,2.7681 -0.20752,0.92358 -0.16839,1.02861 0.53315,1.43124 1.39983,0.80339 1.66916,3.24374 0.46647,4.2267 -0.73763,0.60286 -0.84608,0.58957 -1.81052,-0.22196 z m -1.98024,-12.07287 c -0.0742,-0.47751 -0.26286,-1.6745297 -0.4192,-2.6600597 -0.23987,-1.51211 -0.21455,-1.98808 0.16214,-3.04868 0.59153,-1.6655 0.33143,-3.05199 -0.78043,-4.16009 -0.46146,-0.45991 -0.96052,-0.8851 -1.10901,-0.94486 -0.1485,-0.0598 -0.61307,-1.00164 -1.0324,-2.09305 -3.19596,-8.31832 -9.704,-16.3614603 -16.04413,-19.8285903 -1.41679,-0.77478 -1.41972,-0.779 -0.72226,-1.04417 1.51297,-0.57524 5.16063,-1.08743 7.7131,-1.08306 5.51581,0.009 10.07155,1.66882 14.38726,5.24038 2.99016,2.47458 6.092,7.52331 7.0998,11.5560703 0.62205,2.48913 0.62408,6.62669 0.004,8.73125 -1.1749,3.98951 -3.96125,7.46291 -7.48836,9.3348597 l -1.63585,0.86819 z m -8.70778,-0.24042 c -0.6658,-0.99942 -0.97395,-2.2592297 -0.97395,-3.9818897 0,-1.44571 -0.0289,-1.50885 -0.7276,-1.58925 -0.52097,-0.0599 -0.75162,-0.25278 -0.81215,-0.67903 -0.0887,-0.62423 -0.43032,-0.78197 -0.71078,-0.32817 -0.0908,0.14692 0.0808,0.5797 0.38126,0.96172 0.56358,0.71647 0.72022,1.41697 0.31687,1.41697 -0.12623,0 -1.07873,-0.8342 -2.11667,-1.85378 -1.3778,-1.35342 -1.88718,-2.03892 -1.88718,-2.53968 0,-0.42522 -0.31036,-0.97583 -0.81664,-1.44875 l -0.81663,-0.76286 0.65088,-0.29656 c 0.9047,-0.41221 1.70239,0.0645 2.28488,1.36556 0.47733,1.06616 0.81418,1.11522 0.81418,0.11858 0,-0.91305 -0.66593,-1.56975 -1.89535,-1.86909 -0.8662,-0.2109 -1.14736,-0.40593 -1.14736,-0.79587 0,-0.40554 0.15632,-0.50015 0.72761,-0.44035 0.80378,0.0841 0.94294,-0.22952 0.32819,-0.73972 -0.25165,-0.20886 -0.80336,-0.27729 -1.49142,-0.185 -0.60061,0.0805 -1.37568,0.0386 -1.72238,-0.0932 -0.55066,-0.20935 -0.58892,-0.30601 -0.30259,-0.76449 0.28266,-0.45262 0.22763,-0.62935 -0.39999,-1.28444 -1.20801,-1.26089 -0.22172,-2.34863 1.37901,-1.52086 0.98089,0.50724 1.0847,0.5092 1.0847,0.0204 0,-0.21454 -0.32771,-0.55954 -0.72823,-0.76666 -0.40053,-0.20712 -0.94333,-0.61427 -1.20623,-0.90477 -0.43967,-0.48583 -0.54026,-0.49714 -1.25425,-0.14095 -0.85924,0.42865 -1.83838,0.25615 -1.83838,-0.32387 0,-0.2057 0.29766,-0.44871 0.66146,-0.54002 0.3638,-0.0913 0.66146,-0.27377 0.66146,-0.40547 0,-0.13169 -0.42749,-0.0608 -0.94998,0.15748 -0.68118,0.28462 -1.09121,0.32134 -1.44914,0.12978 -1.02054,-0.54618 -1.40333,-2.1758303 -0.58486,-2.4899103 0.83585,-0.32074 -0.2007,-0.66713 -2.00935,-0.67148 -1.54082,-0.004 -1.65477,-0.0419 -1.32292,-0.4438 0.19972,-0.24187 0.72031,-0.66642 1.15688,-0.94344 l 0.79375,-0.50369 -1.19063,0.13048 c -2.30303,0.25238 -3.70712,0.61873 -4.24824,1.10843 -0.46767,0.42324 -0.58184,0.43887 -0.79094,0.10828 -0.13441,-0.21249 -0.24621,-0.89778 -0.24844,-1.52286 -0.003,-0.85733 0.15548,-1.29603 0.64539,-1.78593 0.77814,-0.77815 1.73181,-0.86866 1.73181,-0.16437 0,0.73189 0.16123,0.78215 1.59793,0.49807 1.1148,-0.22042 1.40086,-0.19143 1.81572,0.18401 0.27084,0.24511 1.30859,0.57272 2.30611,0.72802 1.24955,0.19453 1.92233,0.43749 2.163,0.7811 0.19214,0.2743 0.5546,0.49873 0.80549,0.49873 0.26233,0 0.58155,0.33221 0.75126,0.78181 0.1865,0.49409 0.54864,0.84545 0.98405,0.95473 0.53225,0.13358 0.68894,0.3376 0.68894,0.89697 0,0.72273 0.69685,1.5998303 1.27106,1.5998303 0.21838,0 0.22911,-0.19526 0.0383,-0.6971103 -0.14577,-0.38341 -0.23212,-1.11836 -0.19189,-1.63323 0.067,-0.85704 -0.061,-1.04544 -1.51435,-2.23001 -2.74952,-2.24097 -7.86545,-4.43549 -10.34016,-4.43549 -0.83056,0 -0.83749,-0.0113 -1.01338,-1.65364 -0.0974,-0.90951 -0.24578,-2.04424 -0.32972,-2.52162 l -0.15262,-0.86798 1.15544,0.16786 c 8.6382,1.25492 17.54025,8.57115 22.57441,18.5529903 1.22033,2.4197 2.08227,4.58122 1.89966,4.76383 -0.0565,0.0565 -0.62327,0.36531 -1.2596,0.68634 l -1.15695,0.58368 -1.14747,-2.24896 c -1.87842,-3.68154 -6.49279,-10.2353303 -7.25305,-10.3014803 -0.63497,-0.0553 0.0111,1.2189603 1.38906,2.7394503 1.5914,1.75605 1.97317,2.47497 1.14564,2.15742 -0.24303,-0.0933 -0.53505,-0.0188 -0.64894,0.16548 -0.15289,0.24738 -0.41803,0.13293 -1.01334,-0.43741 -0.44345,-0.42485 -0.80627,-0.64718 -0.80627,-0.49406 0,0.58775 1.21307,1.77534 2.9519,2.8899 1.59061,1.01956 2.33151,1.95779 1.54601,1.95779 -0.43321,0 -0.30165,0.58789 0.26703,1.19322 0.45204,0.48118 0.48902,0.68805 0.24706,1.38216 -0.23647,0.67833 -0.18574,1.03271 0.3002,2.09701 0.54991,1.20439 0.60068,1.24525 0.85171,0.68542 0.14683,-0.32742 0.48688,-0.59531 0.75569,-0.59531 0.41916,0 0.48873,0.21877 0.48873,1.53693 0,0.88136 0.15413,1.74771 0.36134,2.03108 0.3101,0.4241 0.29174,0.65149 -0.12955,1.60388 -0.26999,0.61034 -0.5855,1.75018 -0.70115,2.5329797 l -0.21027,1.42325 z m 3.29914,-4.8682597 c -1.94625,-1.63766 -0.86134,-4.62306 1.68004,-4.62306 1.72134,0 3.00075,1.55909 2.63731,3.21382 -0.22822,1.03909 -1.54667,2.07785 -2.63731,2.07785 -0.56098,0 -1.17661,-0.245 -1.68004,-0.66861 z m 16.25848,-5.67939 c 0.57467,-3.92281 -0.12584,-8.42613 -1.88987,-12.1493503 -2.99793,-6.32754 -8.51421,-10.91667 -15.3344,-12.75708 -3.13148,-0.84502 -8.58336,-0.80758 -11.9724,0.0822 -1.85771,0.48775 -2.4474,0.55956 -2.4474,0.29802 0,-0.1895 -0.2501,-1.06726 -0.55579,-1.95057 -0.30569,-0.88331 -0.49272,-1.6691 -0.41562,-1.7462 0.30496,-0.30496 4.53958,-1.40211 6.42243,-1.66399 8.72992,-1.21422 16.62773,1.33288 22.46253,7.24433 3.31015,3.35363 4.96497,6.33165 5.86518,10.55495 0.79411,3.7256003 -8.1e-4,9.2455703 -1.77854,12.3502403 l -0.53025,0.92605 z"
         id="path1" /></g></g></svg>
