<?xml version="1.0" encoding="UTF-8" standalone="no"?>
<!-- Created with Inkscape (http://www.inkscape.org/) -->

<svg
   width="88.370827mm"
   height="87.841667mm"
   viewBox="0 0 88.370827 87.841667"
   version="1.1"
   id="svg1"
   xml:space="preserve"
   xmlns="http://www.w3.org/2000/svg"
   xmlns:svg="http://www.w3.org/2000/svg"><defs
     id="defs1" /><g
     id="layer1"
     transform="translate(-55.28138,-76.805131)"><rect
       style="fill:#ffffff;fill-opacity:1;stroke-width:0.264583"
       id="rect4"
       width="88.370834"
       height="87.841667"
       x="55.28138"
       y="76.80513" /><path
       id="path3"
       style="fill:#000000"
       d="m 127.02119,97.818835 0.006,0.0016 c -6.2e-4,-0.0033 -9.4e-4,-0.0067 -0.002,-0.0098 -10e-4,0.0028 -0.003,0.0055 -0.005,0.0083 z" /><path
       id="path2"
       style="fill:#a52d05;fill-opacity:1"
       d="m 55.28138,76.805131 v 43.920829 43.92084 h 35.983334 35.983336 v -14.2875 -14.2875 h 8.20208 8.20208 V 106.43846 76.805131 H 99.466797 Z m 75.42485,1.190625 c 4.67349,0.0524 3.93446,7.249843 3.93446,7.249843 0,0 0.0157,6.895816 0.0157,20.106111 0,18.06629 -0.042,20.09613 -0.41858,20.24062 -0.23018,0.0883 -1.89706,0.16072 -3.70417,0.16072 h -3.28558 v -14.02292 c 0,-8.36172 -0.0761,-13.132 -0.22066,-13.909744 l -0.006,-0.0016 c 2.38378,0.62078 -25.76571,49.805534 -43.585456,64.446714 -1.134525,0.93216 -1.891927,1.18377 -3.383773,1.19062 -2.00846,0 -2.226675,-0.0542 -2.888196,-0.71572 -0.393568,-0.39356 -0.654618,-0.85286 -0.715718,-0.99218 l -9.114172,-20.78168 c -0.265952,-0.60641 -0.290244,-1.19063 -0.426848,-1.19063 -0.151092,0 -0.248563,4.66324 -0.248563,11.90625 v 11.90625 l -3.50573,-0.0212 c -1.928151,-0.0115 -3.654557,-0.0806 -3.836458,-0.154 -0.425492,-0.17168 -0.226757,-41.00384 -0.06615,-41.62898 0.09611,-0.37409 0.806525,-3.14639 3.836459,-3.43959 1.878258,-0.18176 2.70957,1.98921 3.307291,3.43959 l 13.10566,31.80064 c 0.950082,2.89922 2.166887,1.39567 4.016809,-1.0821 12.967235,-17.59165 24.483805,-29.43995 43.825755,-72.264843 0.73412,-1.621915 1.73675,-2.231359 3.36413,-2.24224 z m 3.42098,65.748954 v 10.45105 10.45104 h 4.7625 4.7625 v -10.45104 -10.45105 h -4.7625 z" /></g></svg>
