<?xml version="1.0" encoding="UTF-8" standalone="no"?>
<!-- Created with Inkscape (http://www.inkscape.org/) -->

<svg
   width="165.76056mm"
   height="82.88028mm"
   viewBox="0 0 165.76056 82.88028"
   version="1.1"
   id="svg1"
   xml:space="preserve"
   inkscape:version="1.4.2 (ebf0e940d0, 2025-05-08)"
   sodipodi:docname="araujo-symbol.svg"
   xmlns:inkscape="http://www.inkscape.org/namespaces/inkscape"
   xmlns:sodipodi="http://sodipodi.sourceforge.net/DTD/sodipodi-0.dtd"
   xmlns="http://www.w3.org/2000/svg"
   xmlns:svg="http://www.w3.org/2000/svg"><sodipodi:namedview
     id="namedview1"
     pagecolor="#505050"
     bordercolor="#eeeeee"
     borderopacity="1"
     inkscape:showpageshadow="0"
     inkscape:pageopacity="0"
     inkscape:pagecheckerboard="0"
     inkscape:deskcolor="#505050"
     inkscape:document-units="mm"
     showguides="true"
     inkscape:zoom="1.4142136"
     inkscape:cx="333.7544"
     inkscape:cy="156.9777"
     inkscape:window-width="1904"
     inkscape:window-height="1036"
     inkscape:window-x="12"
     inkscape:window-y="10"
     inkscape:window-maximized="0"
     inkscape:current-layer="layer1" /><defs
     id="defs1" /><g
     inkscape:label="Layer 1"
     inkscape:groupmode="layer"
     id="layer1"><rect
       style="opacity:1;fill:#ffffff;fill-opacity:1;stroke-width:2.89999;stroke-linecap:round;stroke-linejoin:round;paint-order:markers fill stroke"
       id="rect6"
       width="82.88028"
       height="82.88028"
       x="0"
       y="0"
       rx="3.5480957e-06" /><rect
       style="opacity:1;fill:#000000;fill-opacity:1;stroke-width:2.89999;stroke-linecap:round;stroke-linejoin:round;paint-order:markers fill stroke"
       id="rect7"
       width="82.88028"
       height="82.88028"
       x="82.88028"
       y="0"
       rx="3.5480957e-06" /><g
       id="g6"
       transform="translate(-15.578602,-6.1125132)"><path
         style="opacity:1;fill:#000000;stroke-width:2.89999;stroke-linecap:round;stroke-linejoin:round;paint-order:markers fill stroke"
         d="m 36.112524,35.397839 a 24.183018,24.183018 0 0 0 -3.276802,12.154814 24.183018,24.183018 0 0 0 24.18302,24.18302 24.183018,24.183018 0 0 0 16.073954,-6.115389 L 71.20909,62.017403 A 20.263445,20.263445 0 0 1 57.018742,67.816016 20.263445,20.263445 0 0 1 36.755379,47.552653 20.263445,20.263445 0 0 1 37.5698,41.867212 l 9.141561,8.962244 5.817216,-5.699911 v 10.484631 0.350883 H 55.81003 V 37.363611 l -8.863542,8.864058 -7.945768,-7.945768 -1.828829,-1.829346 z"
         id="path6" /><path
         style="opacity:1;fill:#7a5d52;fill-opacity:1;stroke-width:2.89999;stroke-linecap:round;stroke-linejoin:round;paint-order:markers fill stroke"
         d="m 57.018742,23.369633 a 24.183018,24.183018 0 0 0 -18.910991,9.110038 l 2.849956,2.718181 a 20.263445,20.263445 0 0 1 16.061035,-7.908562 20.263445,20.263445 0 0 1 20.263362,20.263363 20.263445,20.263445 0 0 1 -1.537373,7.74268 L 66.447624,36.718172 60.457292,49.06884 h 3.735172 l 2.218469,-4.54856 7.342705,14.458032 1.533239,3.018937 0.443901,0.874366 a 24.183018,24.183018 0 0 0 5.470984,-15.318962 24.183018,24.183018 0 0 0 -24.18302,-24.18302 z"
         id="path5" /><path
         id="path3"
         style="opacity:1;fill:#666666;fill-opacity:1;stroke-width:2.89999;stroke-linecap:round;stroke-linejoin:round;paint-order:markers fill stroke"
         d="M 62.215291,53.043799 H 58.472367 L 57.0554,55.965068 h 3.735172 z" /></g><g
       id="g9"
       transform="translate(67.301677,-6.1125132)"><path
         style="opacity:1;fill:#ffffff;stroke-width:2.89999;stroke-linecap:round;stroke-linejoin:round;paint-order:markers fill stroke"
         d="m 36.112524,35.397839 a 24.183018,24.183018 0 0 0 -3.276802,12.154814 24.183018,24.183018 0 0 0 24.18302,24.18302 24.183018,24.183018 0 0 0 16.073954,-6.115389 L 71.20909,62.017403 A 20.263445,20.263445 0 0 1 57.018742,67.816016 20.263445,20.263445 0 0 1 36.755379,47.552653 20.263445,20.263445 0 0 1 37.5698,41.867212 l 9.141561,8.962244 5.817216,-5.699911 v 10.484631 0.350883 H 55.81003 V 37.363611 l -8.863542,8.864058 -7.945768,-7.945768 -1.828829,-1.829346 z"
         id="path7" /><path
         style="opacity:1;fill:#7a5d52;fill-opacity:1;stroke-width:2.89999;stroke-linecap:round;stroke-linejoin:round;paint-order:markers fill stroke"
         d="m 57.018742,23.369633 a 24.183018,24.183018 0 0 0 -18.910991,9.110038 l 2.849956,2.718181 a 20.263445,20.263445 0 0 1 16.061035,-7.908562 20.263445,20.263445 0 0 1 20.263362,20.263363 20.263445,20.263445 0 0 1 -1.537373,7.74268 L 66.447624,36.718172 60.457292,49.06884 h 3.735172 l 2.218469,-4.54856 7.342705,14.458032 1.533239,3.018937 0.443901,0.874366 a 24.183018,24.183018 0 0 0 5.470984,-15.318962 24.183018,24.183018 0 0 0 -24.18302,-24.18302 z"
         id="path8" /><path
         id="path9"
         style="opacity:1;fill:#999999;fill-opacity:1;stroke-width:2.89999;stroke-linecap:round;stroke-linejoin:round;paint-order:markers fill stroke"
         d="M 62.215291,53.043799 H 58.472367 L 57.0554,55.965068 h 3.735172 z" /></g></g></svg>
